# xmcd
# 
# Track frame offsets:
#     150
#     15255
#     32353
#     47813
#     66719
#     81299
#     105288
#     123386
#     136506
#     147040
#     156334
#     168388
# 
# Disc length: 2423
# 
# Revision: 0
# Processed by: cddbd v1.5.2PL0 Copyright (c) Steve Scherf et al.
# Submitted via: fre:ac v1.0.31
# 
DISCID=9209750c
DTITLE=M'ANAM - M'ANAM
DYEAR=2019
DGENRE=Celtic
TTITLE0=Celeuma
TTITLE1=Ardaigh Cuan
TTITLE2=The Hound's Cry
TTITLE3=Bitter Wind
TTITLE4=Tenebrae
TTITLE5=Deyr Fé
TTITLE6=Gunnarshólmi
TTITLE7=The Sheep Stealer
TTITLE8=Bandó Ribineann
TTITLE9=Ag Iascaireacht
TTITLE10=La Chanson de Mardis Gras
TTITLE11=M'ANAM
EXTD=
EXTT0=
EXTT1=
EXTT2=
EXTT3=
EXTT4=
EXTT5=
EXTT6=
EXTT7=
EXTT8=
EXTT9=
EXTT10=
EXTT11=
PLAYORDER=
